<?xml version="1.0" standalone="no"?>
<!DOCTYPE svg PUBLIC "-//W3C//DTD SVG 20010904//EN"
 "http://www.w3.org/TR/2001/REC-SVG-20010904/DTD/svg10.dtd">
<svg version="1.0" xmlns="http://www.w3.org/2000/svg"
 width="300.000000pt" height="300.000000pt" viewBox="0 0 300.000000 300.000000"
 preserveAspectRatio="xMidYMid meet">

<g transform="translate(0.000000,300.000000) scale(0.100000,-0.100000)"
fill="#000000" stroke="none">
<path d="M1445 2456 c-365 -61 -623 -230 -759 -495 -77 -150 -76 -146 -76
-618 0 -468 5 -509 71 -634 39 -73 134 -164 188 -180 38 -11 40 -11 72 26 167
190 741 492 1339 705 36 13 68 26 72 29 10 8 40 350 40 446 -1 197 -96 401
-231 495 -49 34 -53 42 -37 80 5 13 -16 25 -95 59 -201 85 -410 116 -584 87z
m370 -100 c94 -26 93 -25 48 -51 l-40 -25 24 -102 c35 -150 41 -167 73 -183
36 -19 57 -19 134 0 61 16 96 42 96 73 0 8 -21 35 -47 58 -36 33 -44 47 -36
55 17 17 133 -98 172 -171 36 -67 71 -194 71 -254 -1 -40 -3 -43 -160 -180
-88 -77 -160 -141 -160 -143 0 -4 45 27 249 169 30 21 57 38 60 38 8 0 -15
-269 -22 -277 -3 -2 -59 -18 -124 -35 -100 -25 -123 -35 -153 -63 -22 -21 -79
-53 -150 -83 -181 -77 -348 -156 -470 -222 -69 -37 -149 -71 -208 -88 l-94
-26 -39 -61 c-21 -33 -65 -84 -98 -113 -69 -60 -73 -60 -135 8 -51 56 -57 78
-63 205 -4 87 -3 113 8 121 41 31 412 194 466 204 34 7 74 20 90 30 15 9 84
93 153 186 l125 169 3 90 c3 78 0 96 -20 135 -13 25 -38 55 -57 67 -57 39 -89
39 -249 0 -153 -37 -419 -91 -510 -103 l-52 -7 14 40 c98 277 333 464 686 543
106 24 321 22 415 -4z m-337 -552 c19 -21 22 -36 22 -103 l0 -77 -106 -144
c-58 -80 -114 -152 -124 -161 -10 -9 -47 -22 -82 -29 -37 -8 -145 -52 -261
-106 -109 -51 -207 -96 -218 -99 -18 -6 -19 2 -19 298 l0 305 73 12 c129 21
460 89 552 114 102 28 130 26 163 -10z"/>
<path d="M1591 1400 l-284 -249 -71 -11 c-283 -46 -438 -155 -424 -300 2 -21
8 -35 16 -35 10 0 14 17 15 56 2 44 8 63 31 93 56 74 161 124 338 160 l107 22
281 254 c249 225 287 261 278 260 -2 -1 -131 -113 -287 -250z"/>
<path d="M1335 1775 c-54 -53 -12 -145 66 -145 32 0 79 53 79 90 0 44 -39 80
-85 80 -25 0 -44 -8 -60 -25z"/>
</g>
</svg>
